<svg xmlns="http://www.w3.org/2000/svg" width="500" height="500" viewBox="0 0 500 500">
<g>
<path d="M 0.00 0.00 L 500.00 0.00 L 500.00 500.00 L 0.00 500.00 ZM 218.94 332.19 C234.10,340.86 247.52,347.97 248.77,347.98 C251.70,348.01 263.14,342.24 284.93,329.75 C312.49,313.95 331.16,301.35 344.58,289.50 C374.17,263.38 387.25,247.49 398.98,223.43 C404.92,211.25 407.87,201.20 408.67,190.44 C409.83,174.81 405.86,161.78 397.45,153.60 L 392.67 148.96 L 394.83 146.94 C399.88,142.24 395.41,137.32 387.00,138.31 C382.36,138.86 381.94,138.72 379.91,135.88 C377.50,132.48 374.95,131.29 367.00,129.85 C363.98,129.30 360.01,127.98 358.19,126.92 C354.62,124.85 344.60,124.22 343.50,126.00 C342.51,127.59 338.67,127.17 333.09,124.85 C329.17,123.22 327.62,122.98 326.75,123.85 C324.90,125.70 312.06,125.28 308.09,123.25 C306.22,122.29 304.87,121.05 305.09,120.50 C305.32,119.95 308.42,119.49 312.00,119.47 C319.16,119.44 321.00,118.76 321.00,116.13 C321.00,111.16 306.06,109.35 298.00,113.35 C293.67,115.50 293.51,115.74 293.69,119.76 C293.87,123.84 293.79,123.95 290.19,124.51 C288.16,124.83 285.15,125.71 283.50,126.47 C281.85,127.23 278.92,128.11 277.00,128.44 C272.40,129.22 265.50,133.17 265.50,135.03 C265.50,135.94 266.81,136.69 268.95,137.00 L 272.40 137.50 L 266.53 141.00 C260.00,144.90 256.41,150.02 258.05,153.09 C258.69,154.29 258.64,155.10 257.90,155.56 C255.70,156.92 253.04,164.60 253.02,169.65 C253.01,173.43 253.77,176.27 255.92,180.35 C257.70,183.72 258.62,186.72 258.29,188.01 C257.48,191.10 262.41,195.75 268.39,197.52 C273.02,198.90 286.00,199.62 286.00,198.50 C286.00,198.23 285.08,197.08 283.97,195.97 L 281.93 193.93 L 285.67 190.41 C289.11,187.16 289.60,186.98 291.90,188.19 C297.86,191.32 314.52,210.81 312.75,212.58 C312.44,212.89 310.13,212.20 307.60,211.05 C299.89,207.53 298.33,207.10 289.59,206.01 C275.18,204.22 256.58,207.40 255.17,211.90 C254.82,213.02 255.62,213.17 259.12,212.64 C274.42,210.35 280.91,209.99 289.43,210.94 C303.63,212.53 315.21,219.08 320.05,228.28 C321.93,231.86 322.28,234.19 322.37,243.71 C322.43,250.75 322.06,255.34 321.36,256.04 C320.54,256.86 320.13,254.63 319.83,247.64 C319.46,239.21 319.02,237.36 315.96,231.36 C312.16,223.93 305.67,218.00 301.33,218.00 C298.91,218.00 299.00,218.20 303.40,223.10 C308.39,228.65 308.65,231.31 303.88,227.91 C300.40,225.43 292.05,223.03 286.86,223.01 C284.87,223.01 281.04,223.65 278.36,224.45 C275.69,225.25 271.89,226.16 269.93,226.46 C266.36,227.02 258.00,231.76 258.00,233.22 C258.00,233.65 259.35,234.00 261.00,234.00 C263.38,234.00 264.00,234.43 264.00,236.11 C264.00,237.52 263.53,238.03 262.57,237.67 C257.55,235.74 254.33,235.98 249.00,238.70 C242.90,241.80 238.77,247.83 240.67,250.84 C242.36,253.52 243.69,253.19 245.84,249.54 C248.88,244.40 252.27,244.64 255.11,250.22 C260.13,260.05 256.82,266.48 244.94,270.02 C233.83,273.33 217.22,272.18 212.81,267.80 C210.52,265.52 205.69,264.42 192.00,263.03 C173.35,261.15 172.36,260.98 170.39,259.49 C168.76,258.26 168.73,258.06 170.14,258.03 C174.98,257.94 171.64,247.36 165.21,242.45 C158.27,237.13 149.00,236.60 149.00,241.51 C149.00,244.94 147.93,245.15 142.98,242.69 C137.39,239.91 130.97,233.39 125.30,224.72 C119.45,215.78 116.61,209.17 113.55,197.40 C112.16,192.06 110.80,187.46 110.51,187.18 C108.81,185.48 111.10,200.08 114.05,209.79 C118.37,224.01 130.54,239.28 142.73,245.77 C151.05,250.21 156.00,249.84 156.00,244.80 C156.00,241.21 161.17,243.49 163.57,248.14 C165.21,251.31 164.81,256.00 162.90,256.00 C162.23,256.00 162.10,257.16 162.53,259.13 L 163.22 262.26 L 159.36 261.58 C157.24,261.20 152.13,259.31 148.01,257.38 C141.91,254.52 138.77,252.09 130.97,244.19 C125.71,238.86 120.15,232.25 118.62,229.50 C110.95,215.79 105.07,196.43 105.02,184.75 C104.99,176.50 103.30,177.66 102.47,186.49 C100.85,203.72 108.47,229.88 120.17,247.32 C132.89,266.28 157.95,293.16 171.86,302.77 C174.96,304.91 180.62,308.86 184.44,311.54 C188.25,314.22 203.78,323.51 218.94,332.19 ZM 170.00 219.83 C173.57,220.96 178.07,221.89 180.00,221.89 C183.23,221.90 183.01,221.71 177.22,219.49 C155.77,211.23 145.07,194.10 145.02,167.93 C144.99,153.09 149.49,142.22 159.89,132.00 C174.21,117.92 190.88,113.27 211.65,117.56 C215.81,118.42 219.46,118.87 219.76,118.57 C220.90,117.43 194.81,105.85 187.73,104.35 C165.99,99.73 141.59,107.13 126.89,122.80 C116.78,133.57 112.93,143.82 112.91,159.99 C112.90,170.99 114.36,177.74 118.75,187.00 C122.76,195.45 132.19,205.73 140.26,210.43 C145.86,213.69 155.01,217.31 154.97,216.25 C154.95,215.84 152.14,213.93 148.72,212.00 C145.27,210.06 138.69,204.71 133.94,200.00 C126.40,192.51 124.92,190.43 121.51,182.50 C117.73,173.72 117.63,173.21 117.62,161.50 C117.61,151.59 118.00,148.39 119.86,143.11 C124.56,129.79 134.63,118.01 146.00,112.57 C153.73,108.86 162.54,106.57 166.25,107.30 L 168.50 107.75 L 166.15 108.51 C151.85,113.20 137.02,125.29 137.00,132.27 C137.00,133.24 135.65,136.42 134.00,139.35 C130.17,146.13 129.96,151.68 133.41,154.92 L 135.83 157.19 L 133.91 162.75 C131.94,168.50 131.47,179.24 133.00,184.00 C133.58,185.82 133.83,184.65 133.90,179.75 C133.96,175.98 134.44,173.00 135.00,173.00 C135.55,173.00 136.00,174.30 136.00,175.89 C136.00,180.54 139.66,191.07 143.22,196.67 C146.74,202.21 156.31,212.66 160.77,215.83 C162.27,216.90 166.43,218.70 170.00,219.83 ZM 250.50 307.62 C243.52,309.16 222.54,310.16 214.00,309.36 C206.96,308.70 195.06,305.91 194.34,304.75 C193.91,304.04 195.13,303.90 198.10,304.34 C217.66,307.18 234.28,307.42 245.50,305.02 C247.70,304.55 252.20,303.63 255.50,302.98 C271.91,299.73 291.41,287.97 299.71,276.30 C300.92,274.60 302.88,270.34 304.06,266.85 C306.73,258.97 306.37,249.59 303.15,243.29 C300.34,237.80 300.44,237.13 303.60,240.08 C315.76,251.43 311.80,273.86 295.28,287.20 C282.27,297.70 269.88,303.35 250.50,307.62 ZM 218.00 284.54 C203.32,287.40 183.12,285.31 168.72,279.46 C165.38,278.11 162.29,277.00 161.84,277.00 C161.39,277.00 160.23,276.36 159.26,275.57 C158.29,274.78 153.85,271.42 149.38,268.10 C130.66,254.15 130.26,250.86 148.79,263.21 C162.79,272.53 174.92,277.96 187.00,280.32 C196.36,282.14 215.63,281.78 226.00,279.59 C234.65,277.76 237.36,277.60 236.52,278.97 C235.74,280.22 227.56,282.69 218.00,284.54 ZM 336.46 254.87 C335.01,256.59 333.44,258.00 332.97,258.00 C332.51,258.00 333.43,254.15 335.02,249.45 C340.71,232.62 340.83,220.30 335.49,204.37 C334.12,200.29 333.00,196.66 333.00,196.29 C333.00,195.93 334.39,196.95 336.09,198.56 C341.32,203.53 345.25,212.92 346.50,223.40 C347.55,232.22 342.69,247.46 336.46,254.87 ZM 232.67 245.33 C233.74,246.41 233.87,246.21 235.05,241.75 C237.17,233.77 241.15,228.78 248.29,225.11 C255.05,221.64 262.57,220.11 272.11,220.26 C277.82,220.36 281.42,219.98 282.18,219.22 C282.83,218.57 283.08,217.75 282.74,217.41 C281.39,216.05 268.60,215.79 261.25,216.96 C253.32,218.22 244.00,221.55 244.00,223.12 C244.00,223.61 243.36,224.00 242.58,224.00 C241.00,224.00 236.13,229.82 233.64,234.70 C231.99,237.92 231.43,244.09 232.67,245.33 ZM 222.73 177.67 C223.22,178.88 223.75,177.14 224.32,172.53 C225.31,164.46 227.77,160.28 231.77,159.81 C235.23,159.42 234.85,157.80 231.00,156.50 C226.75,155.07 225.02,151.97 224.32,144.56 C223.61,136.95 222.04,136.79 221.90,144.31 C221.76,151.83 220.82,154.31 217.47,156.00 C213.70,157.90 213.24,159.35 216.19,160.03 C219.19,160.72 222.00,166.34 222.00,171.67 C222.00,173.96 222.33,176.66 222.73,177.67 ZM 189.50 208.02 C190.23,213.30 192.00,214.88 192.01,210.25 C192.01,206.80 193.86,200.01 194.80,199.98 C195.18,199.97 196.56,199.14 197.86,198.14 L 200.22 196.33 L 196.69 194.25 C193.52,192.38 193.09,191.60 192.47,186.58 C192.08,183.51 191.41,181.00 190.98,181.00 C190.54,181.00 189.88,183.24 189.50,185.99 C188.97,189.82 188.12,191.56 185.83,193.49 C184.19,194.87 182.21,196.00 181.42,196.00 C180.64,196.00 180.00,196.45 180.00,197.00 C180.00,197.55 181.09,198.00 182.43,198.00 C185.81,198.00 188.68,202.07 189.50,208.02 ZM 362.36 121.08 C366.09,123.35 370.87,123.56 373.56,121.56 C377.42,118.69 371.76,114.04 364.37,114.01 C360.12,114.00 357.25,115.98 358.52,118.04 C358.91,118.66 360.63,120.02 362.36,121.08 ZM 213.02 231.06 C213.03,233.65 213.27,234.13 214.00,233.00 C214.53,232.18 214.98,230.69 214.98,229.70 C214.99,228.72 216.07,226.84 217.38,225.53 L 219.76 223.15 L 217.45 221.14 C215.97,219.85 214.87,217.42 214.37,214.32 L 213.60 209.50 L 212.88 214.95 C212.44,218.37 211.51,220.88 210.40,221.69 C208.73,222.91 208.76,223.11 210.82,225.31 C212.18,226.75 213.01,228.93 213.02,231.06 ZM 237.45 182.92 C238.43,184.50 240.00,184.24 240.00,182.50 C240.00,181.53 240.97,181.00 242.75,181.00 L 245.50 180.99 L 242.30 178.00 C240.55,176.35 238.66,175.00 238.11,175.00 C237.08,175.00 232.00,181.13 232.00,182.36 C232.00,182.73 233.08,182.77 234.39,182.44 C235.71,182.11 237.08,182.32 237.45,182.92 ZM 335.84 112.87 C337.69,113.55 338.49,113.85 339.28,113.86 C339.89,113.87 340.51,113.70 341.62,113.40 L 341.80 113.36 C345.31,112.42 344.32,108.80 340.23,107.63 C333.57,105.73 329.52,110.55 335.84,112.87 ZM 141.75 231.92 C145.22,233.94 147.00,232.60 147.00,227.98 C147.00,225.54 145.45,224.67 142.44,225.42 C139.49,226.17 139.05,230.35 141.75,231.92 ZM 200.25 136.34 C202.43,137.22 203.30,137.04 205.17,135.35 C207.67,133.08 207.47,130.99 204.75,131.03 C200.64,131.09 197.23,135.12 200.25,136.34 ZM 245.61 196.12 C247.69,198.42 251.34,198.24 251.80,195.82 C252.26,193.38 248.56,191.63 245.92,193.04 C243.91,194.12 243.90,194.23 245.61,196.12 ZM 160.08 231.41 C164.91,235.48 167.26,234.66 162.76,230.47 C159.08,227.05 157.00,226.12 157.00,227.91 C157.00,228.41 158.38,229.99 160.08,231.41 ZM 295.00 257.01 C295.00,262.31 293.28,261.01 292.69,255.26 C292.36,252.13 292.29,249.38 292.52,249.14 C293.25,248.42 295.00,253.99 295.00,257.01 ZM 165.38 116.49 C160.45,118.55 159.02,118.33 161.86,115.97 C163.94,114.23 169.00,113.18 169.00,114.49 C169.00,114.75 167.37,115.65 165.38,116.49 Z" fill="rgb(0,0,1)"/>
<path d="M 218.94 332.19 C216.22,330.64 213.50,329.06 210.83,327.51 C211.55,327.92 212.27,328.34 212.99,328.74 C233.35,340.33 238.06,342.33 239.50,340.00 C239.84,339.45 241.00,339.00 242.07,339.00 C243.14,339.00 244.74,338.16 245.62,337.13 C246.89,335.65 248.14,335.37 251.76,335.78 C254.82,336.13 256.09,335.95 255.64,335.23 C255.28,334.65 255.55,333.94 256.24,333.66 C256.98,333.37 256.74,333.12 255.68,333.08 C253.15,332.97 250.36,330.16 252.18,329.55 C257.69,327.71 261.48,327.18 263.08,328.04 C264.06,328.57 266.03,329.00 267.46,329.00 C271.69,329.00 287.59,320.26 296.80,312.88 C301.51,309.09 305.91,306.00 306.58,306.00 C307.24,306.00 308.05,305.31 308.38,304.46 C309.34,301.96 306.31,301.64 302.71,303.87 C300.84,305.02 296.73,306.21 293.43,306.54 C290.17,306.87 285.60,307.82 283.28,308.64 C280.95,309.47 278.03,310.00 276.78,309.82 C274.88,309.55 275.33,309.07 279.50,306.90 C282.25,305.47 285.99,304.01 287.81,303.66 C289.63,303.31 291.79,302.36 292.60,301.54 C293.42,300.72 295.98,299.55 298.30,298.93 C300.61,298.32 303.18,297.21 304.00,296.48 C304.83,295.74 306.68,294.69 308.12,294.15 C312.33,292.54 336.97,275.68 343.62,269.86 C346.98,266.91 352.38,262.21 355.62,259.41 C364.85,251.42 367.40,247.08 368.00,238.34 C368.27,234.30 368.21,231.00 367.85,231.00 C367.49,231.00 365.83,233.42 364.16,236.37 C361.04,241.90 358.00,244.33 358.00,241.29 C358.00,240.38 358.86,237.13 359.90,234.07 C362.28,227.13 363.17,219.57 362.15,215.00 C361.38,211.53 361.36,211.55 360.63,217.00 C359.48,225.63 356.15,235.72 353.46,238.74 L 351.01 241.50 L 352.46 237.88 C353.26,235.89 353.67,232.97 353.38,231.38 C353.08,229.80 352.73,226.02 352.59,223.00 C352.20,214.32 347.22,199.76 342.89,194.62 C342.37,194.00 340.56,191.35 338.86,188.73 C337.17,186.10 333.69,182.28 331.14,180.23 C328.59,178.18 326.27,176.22 326.00,175.88 C325.73,175.55 324.47,174.95 323.20,174.55 C320.53,173.72 318.22,175.28 316.87,178.85 C316.00,181.12 315.59,181.24 310.13,180.75 C304.26,180.21 300.77,178.82 298.01,175.91 C296.34,174.15 293.00,173.76 293.00,175.33 C293.00,175.88 292.73,176.06 292.39,175.73 C292.06,175.39 290.62,176.29 289.20,177.71 C286.32,180.59 284.67,179.12 287.40,176.11 C289.44,173.86 289.43,172.04 287.39,170.54 C285.91,169.46 285.92,169.22 287.46,167.68 C288.39,166.76 290.17,166.00 291.43,166.00 C293.77,166.00 299.33,169.90 303.69,174.61 C305.85,176.94 306.70,177.19 311.10,176.76 C316.03,176.29 321.00,173.14 321.00,170.49 C321.00,169.85 318.75,167.28 316.00,164.79 C313.25,162.29 311.00,159.53 311.00,158.65 C311.00,156.39 316.42,153.82 319.53,154.60 C321.14,155.00 322.80,156.66 324.05,159.10 C326.50,163.90 329.03,165.60 335.89,167.07 C341.76,168.33 342.95,167.68 342.98,163.25 C343.00,160.56 344.59,160.45 353.95,162.45 C357.74,163.27 360.95,164.58 361.72,165.63 C362.50,166.71 364.34,167.45 366.27,167.47 C369.42,167.50 369.50,167.61 369.32,171.67 C368.97,179.62 363.30,185.99 356.55,186.00 C352.84,186.00 354.23,187.30 359.55,188.81 C364.33,190.17 367.72,194.26 369.55,200.90 C370.57,204.58 370.84,204.94 370.91,202.71 C371.13,196.00 378.06,188.01 383.69,188.00 C384.90,188.00 386.16,187.55 386.50,187.00 C386.86,186.42 385.93,186.00 384.31,186.00 C380.89,185.99 375.66,182.94 373.56,179.73 C372.71,178.43 371.73,175.28 371.37,172.72 C370.76,168.26 370.83,168.08 373.04,168.51 C374.31,168.75 375.97,168.44 376.73,167.81 C377.78,166.93 378.49,167.09 379.80,168.48 C380.74,169.47 380.94,169.97 380.25,169.58 C378.74,168.73 378.71,169.10 380.01,172.54 C380.66,174.24 381.55,175.00 382.46,174.65 C383.34,174.32 384.15,174.90 384.55,176.15 C385.31,178.56 388.33,183.12 393.09,189.07 C394.97,191.41 397.40,196.03 398.50,199.34 C399.60,202.65 401.07,205.54 401.76,205.76 C402.49,206.00 403.71,204.54 404.63,202.34 C405.51,200.23 406.69,198.21 407.26,197.85 C407.57,197.66 407.84,196.98 408.06,195.97 C406.76,204.74 403.89,213.36 398.98,223.43 C387.25,247.49 374.17,263.38 344.58,289.50 C331.16,301.35 312.49,313.95 284.93,329.75 C263.14,342.24 251.70,348.01 248.77,347.98 C247.52,347.97 234.10,340.86 218.94,332.19 ZM 295.13 232.57 C300.21,235.20 304.27,239.29 306.97,244.10 C306.03,242.65 304.91,241.30 303.60,240.08 C300.44,237.13 300.34,237.80 303.15,243.29 C306.37,249.59 306.73,258.97 304.06,266.85 C302.88,270.34 300.92,274.60 299.71,276.30 C291.41,287.97 271.91,299.73 255.50,302.98 C252.20,303.63 247.70,304.55 245.50,305.02 C236.71,306.90 224.60,307.16 210.37,305.82 C222.99,306.40 243.43,304.42 251.32,301.42 C253.41,300.62 255.59,300.25 256.16,300.60 C256.73,300.95 258.40,300.34 259.88,299.24 C261.37,298.15 264.02,296.94 265.78,296.55 C267.54,296.16 269.23,295.43 269.55,294.92 C269.86,294.42 271.11,294.00 272.33,294.00 C273.55,294.00 276.94,292.42 279.86,290.50 C282.78,288.58 285.35,287.00 285.56,287.00 C286.69,287.00 296.85,276.63 298.03,274.27 C298.79,272.75 299.87,270.89 300.43,270.13 C306.16,262.38 304.48,241.71 297.88,238.79 C296.43,238.14 294.58,236.15 293.77,234.36 L 292.29 231.10 ZM 336.46 254.87 C336.72,254.55 336.99,254.22 337.25,253.88 C336.03,255.71 334.74,257.41 333.39,258.92 C330.87,261.71 328.41,264.00 327.91,264.00 C326.50,264.00 326.84,260.84 328.42,259.08 C331.26,255.93 337.03,236.77 337.66,228.41 C338.20,221.36 337.92,219.16 335.54,211.41 C334.04,206.51 331.25,199.62 329.35,196.11 C322.25,183.01 330.64,188.17 339.21,202.18 C339.40,202.47 339.57,202.77 339.75,203.07 C338.62,201.32 337.40,199.80 336.09,198.56 C334.39,196.95 333.00,195.93 333.00,196.29 C333.00,196.66 334.12,200.29 335.49,204.37 C340.83,220.30 340.71,232.62 335.02,249.45 C333.43,254.15 332.51,258.00 332.97,258.00 C333.44,258.00 335.01,256.59 336.46,254.87 ZM 319.20 240.06 C319.53,242.00 319.68,244.30 319.83,247.64 C320.13,254.63 320.54,256.86 321.36,256.04 C322.06,255.34 322.43,250.75 322.37,243.71 C322.28,234.19 321.93,231.86 320.05,228.28 C318.78,225.87 317.06,223.65 314.94,221.65 C315.55,222.16 316.06,222.65 316.45,223.08 C318.34,225.16 320.05,226.36 320.25,225.74 C320.46,225.12 321.43,226.61 322.41,229.06 C324.91,235.27 324.72,252.51 322.09,258.38 C321.07,260.64 319.95,263.44 319.60,264.59 C319.02,266.51 314.00,272.07 314.00,270.79 C314.00,270.49 315.19,267.15 316.65,263.37 C318.77,257.87 319.32,254.68 319.40,247.41 C319.44,244.06 319.43,241.87 319.20,240.06 ZM 294.84 264.45 C292.67,269.22 291.14,267.54 291.73,261.03 C292.03,257.75 291.80,253.82 291.23,252.28 C290.66,250.75 289.85,248.60 289.43,247.50 C289.01,246.40 288.60,245.27 288.50,245.00 C287.58,242.35 286.64,241.10 285.90,241.56 C285.40,241.87 285.00,241.64 285.00,241.06 C285.00,237.63 293.19,244.98 294.85,249.90 C296.33,254.27 296.32,261.20 294.84,264.45 ZM 311.30 213.78 C304.81,209.10 299.72,207.27 289.70,206.02 C298.34,207.10 299.92,207.55 307.60,211.05 C310.13,212.20 312.44,212.89 312.75,212.58 C314.52,210.81 297.86,191.32 291.90,188.19 C289.91,187.14 289.28,187.13 286.91,189.26 C287.58,188.39 288.00,187.56 288.00,187.00 C288.00,182.24 299.92,190.46 307.56,200.49 C311.48,205.65 317.29,216.05 316.61,216.72 C316.33,217.01 313.94,215.68 311.30,213.78 ZM 278.17 268.35 C277.17,269.26 276.04,270.00 275.66,270.00 C274.89,270.00 275.96,256.78 277.03,253.00 L 277.75 250.50 L 278.87 253.32 C280.71,257.89 280.31,266.41 278.17,268.35 ZM 332.98 229.30 C332.96,236.80 331.44,238.40 330.57,231.83 C330.19,228.90 329.63,224.81 329.35,222.75 C329.06,220.69 329.24,219.00 329.75,219.00 C331.43,219.00 333.00,224.00 332.98,229.30 ZM 357.53 176.09 L 358.19 178.17 L 359.65 176.09 C360.46,174.94 361.76,174.00 362.56,174.00 C363.35,174.00 364.00,173.55 364.00,173.00 C364.00,172.45 363.34,172.00 362.54,172.00 C361.73,172.00 360.54,171.00 359.89,169.79 L 358.70 167.57 L 357.88 169.79 C357.43,171.00 356.37,172.00 355.53,172.00 C354.69,172.00 354.00,172.45 354.00,173.00 C354.00,173.55 354.64,174.00 355.43,174.00 C356.22,174.00 357.16,174.94 357.53,176.09 ZM 387.41 206.50 C388.18,208.46 388.22,208.46 389.04,206.34 C389.50,205.14 390.65,203.74 391.60,203.20 C393.17,202.33 393.13,202.18 391.16,201.55 C389.97,201.17 389.00,200.15 389.00,199.27 C389.00,198.05 388.46,198.24 386.68,200.09 C384.98,201.84 384.66,202.77 385.49,203.50 C386.11,204.05 386.98,205.40 387.41,206.50 ZM 203.53 305.07 C201.74,304.85 199.93,304.60 198.10,304.34 C195.13,303.90 193.91,304.04 194.34,304.75 C194.53,305.05 195.49,305.47 196.93,305.93 C189.33,304.02 182.73,301.94 183.36,301.30 C183.63,301.04 187.37,301.58 191.67,302.52 C195.98,303.45 201.30,304.59 203.50,305.06 ZM 282.94 238.43 C284.46,240.26 284.20,240.34 281.66,238.87 C280.05,237.94 278.18,237.36 275.87,237.08 C275.52,237.03 275.00,236.11 274.72,235.03 C274.21,233.09 274.24,233.08 277.92,234.96 C279.96,236.00 282.22,237.56 282.94,238.43 ZM 295.00 257.01 C295.00,253.99 293.25,248.42 292.52,249.14 C292.29,249.38 292.36,252.13 292.69,255.26 C293.28,261.01 295.00,262.31 295.00,257.01 ZM 241.36 332.50 C240.68,334.29 239.64,334.29 235.00,332.50 L 231.50 331.15 L 236.72 331.08 C240.97,331.01 241.83,331.28 241.36,332.50 ZM 219.48 223.43 L 213.97 217.74 L 211.42 220.49 L 211.27 220.65 C211.98,219.43 212.56,217.43 212.88,214.95 L 213.60 209.50 L 214.37 214.32 C214.87,217.42 215.97,219.85 217.45,221.14 L 219.76 223.15 ZM 227.37 154.24 C226.01,152.76 225.13,150.67 224.60,147.75 C223.74,143.06 222.75,143.02 221.76,147.57 C221.83,146.60 221.88,145.52 221.90,144.31 C222.04,136.79 223.61,136.95 224.32,144.56 C224.77,149.35 225.65,152.34 227.37,154.24 ZM 363.00 161.03 C363.00,161.56 362.33,162.00 361.50,162.00 C360.67,162.00 360.00,161.11 360.00,160.00 C360.00,157.63 360.67,157.56 364.00,159.60 C365.38,160.45 365.71,160.90 364.75,160.60 C363.79,160.30 363.00,160.50 363.00,161.03 ZM 165.38 116.49 C167.37,115.65 169.00,114.75 169.00,114.49 C169.00,113.18 163.94,114.23 161.86,115.97 C160.51,117.10 160.12,117.73 160.62,117.87 C159.90,117.92 160.19,117.47 160.91,116.61 C162.73,114.41 167.46,112.83 171.13,113.18 C174.25,113.48 173.99,113.67 167.73,115.75 C166.66,116.11 165.72,116.42 164.91,116.68 C165.06,116.62 165.22,116.55 165.38,116.49 ZM 213.02 231.06 C213.01,228.93 212.18,226.75 210.82,225.31 L 210.94 225.43 C212.07,226.64 213.00,228.12 213.00,228.73 C213.00,229.33 214.47,228.40 216.28,226.66 L 216.83 226.13 C215.78,227.37 214.99,228.86 214.98,229.70 C214.98,230.69 214.53,232.18 214.00,233.00 C213.27,234.13 213.03,233.65 213.02,231.06 ZM 222.73 177.67 C222.33,176.66 222.00,173.96 222.00,171.67 C222.00,170.95 221.95,170.23 221.85,169.51 C222.14,170.99 222.47,172.39 222.69,173.00 C223.11,174.19 223.38,174.09 224.04,172.50 C224.25,171.99 224.45,171.29 224.61,170.56 C224.50,171.19 224.40,171.84 224.32,172.53 C223.75,177.14 223.22,178.88 222.73,177.67 ZM 307.00 187.12 C307.00,187.61 306.61,188.00 306.12,188.00 C304.82,188.00 302.92,185.42 303.67,184.67 C304.42,183.92 307.00,185.82 307.00,187.12 ZM 282.36 210.46 C289.96,210.44 295.83,211.47 301.40,213.65 C297.72,212.34 293.69,211.42 289.43,210.94 C286.99,210.67 284.72,210.50 282.36,210.46 ZM 216.07 160.00 C218.46,160.07 220.82,163.48 221.57,167.93 C220.67,163.97 218.49,160.55 216.19,160.03 C216.15,160.02 216.11,160.01 216.07,160.00 ZM 224.80 169.48 C224.87,169.00 224.92,168.55 224.93,168.15 C224.98,166.38 225.98,164.31 227.33,162.66 C226.23,164.26 225.38,166.53 224.80,169.48 ZM 310.00 264.21 C307.93,273.15 302.85,281.08 295.28,287.20 C305.17,279.21 310.56,267.97 310.68,257.79 C310.71,259.93 310.49,262.09 310.00,264.21 ZM 408.75 189.30 C408.93,184.71 408.73,179.23 408.07,175.37 C407.74,173.47 407.34,171.67 406.87,169.97 C408.51,175.72 409.16,182.23 408.75,189.30 ZM 345.46 235.14 C346.47,230.83 346.89,226.67 346.50,223.40 C346.34,222.08 346.14,220.77 345.90,219.50 C346.13,220.64 346.33,221.81 346.50,223.01 C346.99,226.41 346.57,230.65 345.46,235.14 ZM 230.59 160.07 C230.92,159.94 231.24,159.85 231.55,159.81 C234.93,159.39 234.65,157.73 231.00,156.50 C234.85,157.80 235.23,159.42 231.77,159.81 C231.36,159.86 230.97,159.95 230.59,160.07 ZM 283.96 192.02 L 281.93 193.93 L 281.75 193.75 ZM 214.50 309.41 C214.41,309.40 214.32,309.39 214.23,309.38 C219.44,309.84 228.96,309.66 237.24,309.12 C228.88,309.68 219.30,309.87 214.50,309.41 ZM 210.09 221.93 L 209.24 222.84 C209.33,222.56 209.62,222.29 210.09,221.93 ZM 309.92 222.93 C312.18,225.22 314.32,228.15 315.96,231.36 C316.17,231.77 316.37,232.16 316.55,232.54 C316.38,232.19 316.19,231.83 316.00,231.45 C314.34,228.19 312.19,225.24 309.92,222.93 ZM 271.28 206.06 C277.11,205.38 283.70,205.28 289.59,206.01 C283.69,205.28 277.10,205.38 271.28,206.06 ZM 220.06 153.91 C219.76,154.38 219.38,154.76 218.90,155.11 C219.34,154.76 219.73,154.37 220.06,153.91 Z" fill="rgb(10,63,139)"/>
<path d="M 250.50 307.62 C269.88,303.35 282.27,297.70 295.28,287.20 C302.85,281.08 307.93,273.15 310.00,264.21 C310.49,262.09 310.71,259.93 310.68,257.79 C310.74,252.80 309.53,248.07 306.97,244.10 C305.55,241.57 303.76,239.24 301.63,237.21 C302.08,237.59 302.51,237.98 302.92,238.36 C306.17,241.41 306.76,241.73 305.13,239.57 C303.92,237.96 302.00,235.99 300.86,235.19 C299.22,234.04 299.08,233.57 300.15,232.89 C301.11,232.28 300.78,232.02 299.00,232.00 C297.03,231.98 296.82,231.77 298.00,231.02 C298.83,230.50 299.55,229.18 299.61,228.08 C299.70,226.47 299.38,226.26 297.98,227.01 C296.63,227.73 296.26,227.57 296.37,226.29 C296.44,225.36 295.65,224.61 294.28,224.08 C298.07,225.01 301.82,226.45 303.88,227.91 C308.65,231.31 308.39,228.65 303.40,223.10 C299.00,218.20 298.91,218.00 301.33,218.00 C303.80,218.00 306.96,219.91 309.92,222.93 L 309.93 222.93 C312.19,225.24 314.34,228.20 316.00,231.45 C316.19,231.83 316.38,232.19 316.55,232.54 C318.01,235.47 318.76,237.43 319.20,240.06 C319.43,241.87 319.44,244.06 319.40,247.41 C319.32,254.68 318.77,257.87 316.65,263.37 C315.19,267.15 314.00,270.49 314.00,270.79 C314.00,272.07 319.02,266.51 319.60,264.59 C319.95,263.44 321.07,260.64 322.09,258.38 C324.72,252.51 324.91,235.27 322.41,229.06 C321.43,226.61 320.46,225.12 320.25,225.74 C320.05,226.36 318.34,225.16 316.45,223.08 C316.06,222.65 315.55,222.16 314.94,221.65 C311.40,218.29 306.77,215.56 301.40,213.65 C295.83,211.47 289.96,210.44 282.36,210.46 C276.47,210.36 270.04,211.01 259.12,212.64 C255.62,213.17 254.82,213.02 255.17,211.90 C256.00,209.24 262.85,207.04 271.28,206.06 C277.10,205.38 283.69,205.28 289.59,206.01 L 289.64 206.02 L 289.70 206.02 L 289.70 206.03 L 285.12 198.90 C282.13,199.38 272.30,198.68 268.39,197.52 C267.05,197.13 265.77,196.59 264.59,195.95 C265.97,195.62 265.62,193.69 263.66,191.33 C262.36,189.78 261.00,187.15 260.62,185.50 C260.12,183.31 260.21,182.91 260.95,184.00 C261.51,184.82 261.98,186.22 261.98,187.10 C262.00,189.20 264.84,191.68 268.17,192.51 L 270.84 193.18 L 269.67 189.22 C268.49,185.24 268.62,173.97 269.84,174.04 C270.20,174.06 272.01,176.12 273.85,178.63 C276.24,181.88 276.65,182.88 275.26,182.14 C273.71,181.31 273.33,181.44 273.30,182.80 C273.26,185.45 274.99,187.00 278.02,187.00 C281.44,187.00 283.03,184.07 279.72,183.86 C277.72,183.74 277.74,183.68 280.00,183.27 C282.88,182.75 286.00,180.25 286.00,178.47 C286.00,177.80 286.67,176.69 287.49,176.00 C287.46,176.04 287.43,176.08 287.40,176.11 C284.67,179.12 286.32,180.59 289.20,177.71 C290.62,176.29 292.06,175.39 292.39,175.73 C292.73,176.06 293.00,175.88 293.00,175.33 C293.00,173.76 296.34,174.15 298.01,175.91 C300.77,178.82 304.26,180.21 310.13,180.75 C315.59,181.24 316.00,181.12 316.87,178.85 C318.22,175.28 320.53,173.72 323.20,174.55 C324.47,174.95 325.73,175.55 326.00,175.88 C326.27,176.22 328.59,178.18 331.14,180.23 C333.69,182.28 337.17,186.10 338.86,188.73 C340.56,191.35 342.37,194.00 342.89,194.62 C347.22,199.76 352.20,214.32 352.59,223.00 C352.73,226.02 353.08,229.80 353.38,231.38 C353.67,232.97 353.26,235.89 352.46,237.88 L 351.01 241.50 L 353.46 238.74 C356.15,235.72 359.48,225.63 360.63,217.00 C361.36,211.55 361.38,211.53 362.15,215.00 C363.17,219.57 362.28,227.13 359.90,234.07 C358.86,237.13 358.00,240.38 358.00,241.29 C358.00,244.33 361.04,241.90 364.16,236.37 C365.83,233.42 367.49,231.00 367.85,231.00 C368.21,231.00 368.27,234.30 368.00,238.34 C367.40,247.08 364.85,251.42 355.62,259.41 C352.38,262.21 346.98,266.91 343.62,269.86 C336.97,275.68 312.33,292.54 308.12,294.15 C306.68,294.69 304.83,295.74 304.00,296.48 C303.18,297.21 300.61,298.32 298.30,298.93 C295.98,299.55 293.42,300.72 292.60,301.54 C291.79,302.36 289.63,303.31 287.81,303.66 C285.99,304.01 282.25,305.47 279.50,306.90 C275.33,309.07 274.88,309.55 276.78,309.82 C278.03,310.00 280.95,309.47 283.28,308.64 C285.60,307.82 290.17,306.87 293.43,306.54 C296.73,306.21 300.84,305.02 302.71,303.87 C306.31,301.64 309.34,301.96 308.38,304.46 C308.05,305.31 307.24,306.00 306.58,306.00 C305.91,306.00 301.51,309.09 296.80,312.88 C287.59,320.26 271.69,329.00 267.46,329.00 C266.03,329.00 264.06,328.57 263.08,328.04 C261.48,327.18 257.69,327.71 252.18,329.55 C250.36,330.16 253.15,332.97 255.68,333.08 C256.74,333.12 256.98,333.37 256.24,333.66 C255.55,333.94 255.28,334.65 255.64,335.23 C256.09,335.95 254.82,336.13 251.76,335.78 C248.14,335.37 246.89,335.65 245.62,337.13 C244.76,338.14 243.22,338.96 242.14,339.00 C242.55,338.84 242.93,338.70 243.25,338.60 C246.46,337.61 245.06,336.20 238.49,333.85 L 231.99 331.51 L 232.34 331.47 L 235.00 332.50 C239.64,334.29 240.68,334.29 241.36,332.50 C241.83,331.28 240.97,331.01 236.72,331.08 L 235.79 331.09 L 243.05 330.28 C249.13,329.60 256.00,328.49 258.30,327.80 C262.14,326.66 260.86,326.50 243.50,325.86 C220.00,324.99 212.37,323.25 231.00,323.01 C238.20,322.92 245.20,322.29 247.50,321.53 L 251.50 320.21 L 245.00 320.10 C233.85,319.90 221.34,318.08 210.21,315.04 C200.38,312.35 189.00,307.75 189.00,306.46 C189.00,306.17 189.99,306.46 191.20,307.11 C195.72,309.53 203.50,310.98 208.47,310.33 L 213.44 309.68 L 207.11 308.36 C209.56,308.81 211.98,309.17 214.00,309.36 C214.08,309.37 214.15,309.38 214.23,309.38 C214.32,309.39 214.41,309.40 214.50,309.41 C219.30,309.87 228.88,309.68 237.24,309.12 L 237.24 309.12 C242.77,308.76 247.73,308.23 250.50,307.62 ZM 218.00 284.54 C227.56,282.69 235.74,280.22 236.52,278.97 C237.36,277.60 234.65,277.76 226.00,279.59 C215.63,281.78 196.36,282.14 187.00,280.32 C184.37,279.80 181.74,279.15 179.09,278.33 C181.96,278.97 183.56,278.63 183.21,277.07 C182.78,275.14 185.98,272.01 188.40,271.97 C189.56,271.95 191.37,271.28 192.44,270.47 C193.51,269.66 195.45,269.00 196.75,269.00 C198.07,269.00 198.85,268.56 198.50,268.00 C197.81,266.88 198.69,266.73 204.50,266.97 C208.20,267.12 208.35,267.02 206.50,265.73 C205.37,264.94 199.26,263.79 192.50,263.10 C177.94,261.62 173.88,261.17 171.90,260.38 C173.85,261.16 177.83,261.60 192.00,263.03 C205.69,264.42 210.52,265.52 212.81,267.80 C217.22,272.18 233.83,273.33 244.94,270.02 C256.82,266.48 260.13,260.05 255.11,250.22 C252.27,244.64 248.88,244.40 245.84,249.54 C243.69,253.19 242.36,253.52 240.67,250.84 C238.77,247.83 242.90,241.80 249.00,238.70 C254.33,235.98 257.55,235.74 262.57,237.67 C263.53,238.03 264.00,237.52 264.00,236.11 C264.00,235.65 263.95,235.29 263.84,235.00 C264.03,235.24 264.17,235.52 264.25,235.85 C264.52,236.87 266.71,238.85 269.12,240.25 C271.53,241.65 273.79,242.84 274.14,242.90 C275.25,243.07 275.85,239.14 275.28,236.47 C275.49,236.83 275.70,237.06 275.87,237.08 C278.18,237.36 280.05,237.94 281.66,238.87 C284.20,240.34 284.46,240.26 282.94,238.43 C282.62,238.04 281.98,237.50 281.19,236.94 C282.07,237.49 282.94,238.05 283.68,238.56 C286.12,240.21 288.48,240.99 290.46,240.80 C293.10,240.54 293.54,240.06 293.82,237.18 C293.92,236.08 293.80,234.83 293.52,233.83 L 293.77 234.36 C294.58,236.15 296.43,238.14 297.88,238.79 C304.48,241.71 306.16,262.38 300.43,270.13 C299.87,270.89 298.79,272.75 298.03,274.27 C296.85,276.63 286.69,287.00 285.56,287.00 C285.35,287.00 282.78,288.58 279.86,290.50 C276.94,292.42 273.55,294.00 272.33,294.00 C271.11,294.00 269.86,294.42 269.55,294.92 C269.23,295.43 267.54,296.16 265.78,296.55 C264.02,296.94 261.37,298.15 259.88,299.24 C258.40,300.34 256.73,300.95 256.16,300.60 C255.59,300.25 253.41,300.62 251.32,301.42 C243.43,304.42 222.99,306.40 210.37,305.82 C208.14,305.61 205.86,305.36 203.53,305.07 L 203.50 305.06 C201.30,304.59 195.98,303.45 191.67,302.52 C187.37,301.58 183.63,301.04 183.36,301.30 C183.07,301.60 184.33,302.20 186.52,302.96 C183.05,301.95 180.17,301.40 179.70,301.68 C179.15,302.03 178.97,301.86 179.31,301.30 C180.02,300.15 175.22,297.53 173.10,297.91 C172.05,298.09 172.11,297.75 173.35,296.51 C175.23,294.63 175.50,293.00 173.94,293.00 C173.36,293.00 173.19,292.50 173.57,291.89 C174.03,291.14 173.53,291.01 172.00,291.50 C170.48,291.98 169.97,291.86 170.43,291.12 C170.87,290.41 170.50,290.26 169.39,290.68 C168.13,291.16 167.89,290.99 168.49,290.02 C169.05,289.11 168.92,288.93 168.08,289.45 C167.17,290.01 167.40,290.80 168.98,292.47 L 171.10 294.74 L 168.46 294.45 C165.79,294.15 163.69,293.00 165.83,293.00 C166.48,293.00 167.00,292.50 167.00,291.89 C167.00,291.27 166.23,291.05 165.25,291.40 C163.72,291.93 163.74,291.82 165.38,290.55 C167.46,288.94 166.90,285.72 164.62,286.20 C163.85,286.37 162.10,285.38 160.75,284.00 C159.39,282.62 157.30,280.78 156.11,279.89 C154.01,278.33 152.10,273.33 154.07,274.54 C154.60,274.87 154.79,275.53 154.49,276.01 C154.20,276.49 154.87,276.81 155.98,276.73 C158.09,276.57 158.87,275.00 156.83,275.00 C156.19,275.00 155.94,274.73 156.26,274.40 C156.59,274.07 153.35,271.16 149.07,267.93 C144.02,264.13 140.34,261.14 138.03,259.05 C131.91,253.51 135.46,254.33 148.78,263.20 C135.41,254.29 131.90,253.53 138.03,259.05 C140.40,261.17 144.18,264.22 149.38,268.10 C153.85,271.42 158.29,274.78 159.26,275.57 C160.23,276.36 161.39,277.00 161.84,277.00 C162.29,277.00 165.38,278.11 168.72,279.46 C183.12,285.31 203.32,287.40 218.00,284.54 ZM 345.46 235.14 L 345.46 235.14 C346.57,230.65 346.99,226.41 346.50,223.01 C346.33,221.81 346.13,220.64 345.90,219.50 C344.72,213.16 342.55,207.42 339.75,203.07 C339.57,202.77 339.40,202.47 339.21,202.18 C330.64,188.17 322.25,183.01 329.35,196.11 C331.25,199.62 334.04,206.51 335.54,211.41 C337.92,219.16 338.20,221.36 337.66,228.41 C337.03,236.77 331.26,255.93 328.42,259.08 C326.84,260.84 326.50,264.00 327.91,264.00 C328.41,264.00 330.87,261.71 333.39,258.92 C334.74,257.41 336.03,255.71 337.25,253.88 C340.83,249.16 343.87,241.96 345.46,235.14 ZM 363.00 161.03 C363.00,160.50 363.79,160.30 364.75,160.60 C365.71,160.90 365.38,160.45 364.00,159.60 C363.18,159.10 362.52,158.72 361.99,158.48 C362.03,158.49 362.06,158.50 362.10,158.51 C366.88,159.99 382.08,168.40 386.38,171.95 C388.14,173.40 388.22,173.35 387.57,171.25 C387.18,170.01 387.05,169.00 387.29,169.00 C388.13,169.00 396.78,180.62 398.81,184.50 C400.01,186.79 400.93,187.75 400.96,186.75 C401.05,183.12 403.78,185.13 405.02,189.75 C406.68,195.86 407.07,196.50 408.11,194.86 C408.16,194.78 408.21,194.68 408.25,194.57 C408.19,195.04 408.13,195.51 408.06,195.97 C407.84,196.98 407.57,197.66 407.26,197.85 C406.69,198.21 405.51,200.23 404.63,202.34 C403.71,204.54 402.49,206.00 401.76,205.76 C401.07,205.54 399.60,202.65 398.50,199.34 C397.40,196.03 394.97,191.41 393.09,189.07 C388.33,183.12 385.31,178.56 384.55,176.15 C384.15,174.90 383.34,174.32 382.46,174.65 C381.55,175.00 380.66,174.24 380.01,172.54 C378.71,169.10 378.74,168.73 380.25,169.58 C380.94,169.97 380.74,169.47 379.80,168.48 C378.49,167.09 377.78,166.93 376.73,167.81 C375.97,168.44 374.31,168.75 373.04,168.51 C370.83,168.08 370.76,168.26 371.37,172.72 C371.44,173.22 371.54,173.75 371.65,174.29 C371.61,174.12 371.57,173.94 371.53,173.77 L 370.33 168.50 L 369.58 172.47 C369.20,174.47 368.61,176.30 367.85,177.92 C368.70,176.03 369.22,173.91 369.32,171.67 C369.50,167.61 369.42,167.50 366.27,167.47 C364.34,167.45 362.50,166.71 361.72,165.63 C360.99,164.64 358.08,163.41 354.56,162.59 C355.81,162.86 357.19,163.17 358.73,163.52 C360.63,163.95 360.87,163.77 360.43,161.40 C360.70,161.77 361.08,162.00 361.50,162.00 C362.33,162.00 363.00,161.56 363.00,161.03 ZM 232.67 245.33 C231.43,244.09 231.99,237.92 233.64,234.70 C236.13,229.82 241.00,224.00 242.58,224.00 C243.36,224.00 244.00,223.61 244.00,223.12 C244.00,221.55 253.32,218.22 261.25,216.96 C268.60,215.79 281.39,216.05 282.74,217.41 C282.82,217.48 282.87,217.59 282.88,217.71 C282.69,217.24 281.95,217.00 280.67,217.00 C277.64,217.00 276.83,217.88 278.31,219.57 C278.48,219.76 278.64,219.93 278.78,220.09 C277.10,220.25 274.85,220.31 272.11,220.26 C262.57,220.11 255.05,221.64 248.29,225.11 C241.15,228.78 237.17,233.77 235.05,241.75 C233.87,246.21 233.74,246.41 232.67,245.33 ZM 227.37 154.24 C228.31,155.28 229.50,155.99 231.00,156.50 C234.65,157.73 234.93,159.39 231.55,159.81 C231.24,159.85 230.92,159.94 230.59,160.07 C229.32,160.49 228.24,161.36 227.33,162.66 C225.98,164.31 224.98,166.38 224.93,168.15 C224.92,168.55 224.87,169.00 224.80,169.48 C224.73,169.83 224.67,170.19 224.61,170.56 C224.45,171.29 224.25,171.99 224.04,172.50 C223.38,174.09 223.11,174.19 222.69,173.00 C222.47,172.39 222.14,170.99 221.85,169.51 C221.78,168.98 221.68,168.45 221.57,167.93 C220.82,163.48 218.46,160.07 216.07,160.00 C213.25,159.31 213.75,157.88 217.47,156.00 C218.01,155.73 218.48,155.44 218.90,155.11 C219.38,154.76 219.76,154.38 220.06,153.91 C221.04,152.55 221.54,150.62 221.76,147.57 C222.75,143.02 223.74,143.06 224.60,147.75 C225.13,150.67 226.01,152.76 227.37,154.24 ZM 189.50 208.02 C188.68,202.07 185.81,198.00 182.43,198.00 C181.09,198.00 180.00,197.55 180.00,197.00 C180.00,196.45 180.64,196.00 181.42,196.00 C182.21,196.00 184.19,194.87 185.83,193.49 C188.12,191.56 188.97,189.82 189.50,185.99 C189.88,183.24 190.54,181.00 190.98,181.00 C191.41,181.00 192.08,183.51 192.47,186.58 C193.09,191.60 193.52,192.38 196.69,194.25 L 200.22 196.33 L 197.86 198.14 C196.56,199.14 195.18,199.97 194.80,199.98 C193.86,200.01 192.01,206.80 192.01,210.25 C192.00,214.88 190.23,213.30 189.50,208.02 ZM 294.84 264.45 C296.32,261.20 296.33,254.27 294.85,249.90 C293.19,244.98 285.00,237.63 285.00,241.06 C285.00,241.64 285.40,241.87 285.90,241.56 C286.64,241.10 287.58,242.35 288.50,245.00 C288.60,245.27 289.01,246.40 289.43,247.50 C289.85,248.60 290.66,250.75 291.23,252.28 C291.80,253.82 292.03,257.75 291.73,261.03 C291.14,267.54 292.67,269.22 294.84,264.45 ZM 278.17 268.35 C280.31,266.41 280.71,257.89 278.87,253.32 L 277.75 250.50 L 277.03 253.00 C275.96,256.78 274.89,270.00 275.66,270.00 C276.04,270.00 277.17,269.26 278.17,268.35 ZM 219.48 223.43 L 217.38 225.53 C217.19,225.72 217.00,225.92 216.83,226.13 L 216.28 226.66 C214.47,228.40 213.00,229.33 213.00,228.73 C213.00,228.12 212.07,226.64 210.94,225.43 L 210.82 225.31 C209.57,223.98 209.07,223.38 209.24,222.84 L 210.09 221.93 C210.19,221.85 210.29,221.78 210.40,221.69 C210.71,221.47 211.00,221.12 211.27,220.65 L 211.42 220.49 L 213.97 217.74 L 216.76 220.62 ZM 332.98 229.30 C333.00,224.00 331.43,219.00 329.75,219.00 C329.24,219.00 329.06,220.69 329.35,222.75 C329.63,224.81 330.19,228.90 330.57,231.83 C331.44,238.40 332.96,236.80 332.98,229.30 ZM 161.67 287.52 C161.67,289.26 161.35,289.38 160.49,287.98 C160.14,287.42 159.33,287.29 158.68,287.68 C158.03,288.07 158.18,287.54 159.00,286.50 C160.34,284.83 160.33,284.69 158.96,285.20 C157.93,285.59 157.43,285.17 157.43,283.91 C157.43,282.14 157.53,282.15 159.55,284.04 C160.71,285.14 161.67,286.70 161.67,287.52 ZM 307.00 187.12 C307.00,185.82 304.42,183.92 303.67,184.67 C302.92,185.42 304.82,188.00 306.12,188.00 C306.61,188.00 307.00,187.61 307.00,187.12 ZM 256.57 181.64 C257.05,182.37 257.57,183.04 258.12,183.63 C259.87,185.49 259.97,186.08 258.86,187.86 C258.54,188.37 258.32,188.78 258.23,189.17 C258.18,188.76 258.19,188.37 258.29,188.01 C258.58,186.89 257.91,184.47 256.57,181.64 ZM 375.81 182.21 C378.32,184.35 381.80,185.99 384.31,186.00 C384.40,186.00 384.48,186.00 384.56,186.00 C384.54,186.00 384.53,186.00 384.51,186.00 C381.14,186.00 378.14,184.64 375.81,182.21 ZM 383.69 188.00 C380.32,188.01 376.48,190.88 373.89,194.62 C376.41,190.67 380.08,188.01 383.69,188.00 ZM 289.32 223.17 C286.39,223.00 282.92,223.29 279.67,224.10 C282.17,223.47 285.17,223.01 286.86,223.01 C287.62,223.01 288.45,223.07 289.32,223.17 ZM 308.09 123.25 C309.50,123.97 312.02,124.49 314.77,124.77 C312.00,124.49 309.45,123.97 308.00,123.25 C306.08,122.29 304.73,121.05 305.00,120.50 C305.22,120.06 307.32,119.67 310.01,119.53 C307.34,119.67 305.27,120.06 305.09,120.50 C304.87,121.05 306.22,122.29 308.09,123.25 ZM 274.53 234.28 L 274.04 232.97 L 276.51 234.25 C274.65,233.33 274.35,233.33 274.53,234.28 ZM 408.68 181.25 C408.45,178.26 408.07,175.28 407.56,172.86 C407.39,172.06 407.21,171.30 407.03,170.57 C407.43,172.09 407.78,173.69 408.07,175.37 C408.36,177.08 408.56,179.12 408.68,181.25 ZM 281.93 193.93 L 283.96 192.02 L 281.75 193.75 L 281.93 193.93 ZM 253.02 169.56 C253.04,171.81 253.43,174.13 254.10,176.30 C253.32,174.09 253.01,172.06 253.02,169.65 C253.02,169.62 253.02,169.59 253.02,169.56 ZM 295.13 232.57 L 292.71 231.32 C293.30,231.45 294.49,232.08 295.92,232.99 C295.66,232.85 295.40,232.71 295.13,232.57 ZM 352.83 162.22 C344.46,160.46 343.00,160.67 342.98,163.25 C343.00,160.72 343.98,160.34 352.83,162.22 ZM 163.71 272.03 C158.93,269.60 153.99,266.67 148.79,263.21 C153.83,266.57 158.98,269.58 163.71,272.03 ZM 239.27 340.31 C238.89,340.71 238.34,340.91 237.50,340.85 C238.10,340.73 238.73,340.53 239.27,340.31 ZM 212.99 328.74 C218.70,331.99 224.09,334.96 228.26,337.16 C224.53,335.24 219.58,332.49 212.99,328.74 ZM 365.36 181.79 C363.02,184.47 359.97,185.99 356.55,186.00 C359.94,185.99 363.05,184.39 365.36,181.79 ZM 370.65 204.08 L 370.92 202.56 C370.91,202.61 370.91,202.66 370.91,202.71 C370.88,203.71 370.81,204.19 370.65,204.08 ZM 360.63 158.17 C360.28,158.26 360.11,158.59 360.04,159.17 C359.98,158.43 360.13,158.15 360.63,158.17 ZM 192.78 304.84 C194.10,305.20 195.49,305.57 196.93,305.93 C197.22,306.02 197.53,306.12 197.86,306.22 C196.14,305.77 194.39,305.30 192.78,304.84 ZM 292.39 231.32 L 292.83 232.30 L 292.82 232.28 C292.34,231.71 292.23,231.40 292.39,231.32 ZM 367.16 195.04 C368.02,196.44 368.71,198.02 369.20,199.71 C368.64,197.95 367.96,196.39 367.16,195.04 ZM 288.92 173.00 C288.84,172.10 288.32,171.23 287.39,170.54 C288.40,171.28 288.91,172.09 288.92,173.00 ZM 254.89 160.53 C255.79,158.13 256.89,156.19 257.90,155.56 C256.91,156.17 255.80,158.13 254.89,160.53 ZM 397.96 154.11 C397.79,153.94 397.62,153.77 397.45,153.60 C397.62,153.77 397.79,153.94 397.96,154.11 Z" fill="rgb(17,102,208)"/>
<path d="M 212.99 328.74 C201.15,322.01 188.33,314.29 184.49,311.58 C180.64,308.88 174.96,304.91 171.86,302.77 C157.95,293.16 132.89,266.28 120.17,247.32 C108.47,229.88 100.85,203.72 102.47,186.49 C103.30,177.66 104.99,176.50 105.02,184.75 C105.07,196.43 110.95,215.79 118.62,229.50 C120.15,232.25 125.71,238.86 130.97,244.19 C138.77,252.09 141.91,254.52 148.01,257.38 C152.13,259.31 157.24,261.20 159.36,261.58 L 163.22 262.26 L 162.53 259.13 C162.10,257.16 162.23,256.00 162.90,256.00 C164.81,256.00 165.21,251.31 163.57,248.14 C161.17,243.49 156.00,241.21 156.00,244.80 C156.00,249.84 151.05,250.21 142.73,245.77 C130.54,239.28 118.37,224.01 114.05,209.79 C111.10,200.08 108.81,185.48 110.51,187.18 C110.80,187.46 112.16,192.06 113.55,197.40 C116.61,209.17 119.45,215.78 125.30,224.72 C130.97,233.39 137.39,239.91 142.98,242.69 C147.93,245.15 149.00,244.94 149.00,241.51 C149.00,236.60 158.27,237.13 165.21,242.45 C171.64,247.36 174.98,257.94 170.14,258.03 C168.73,258.06 168.76,258.26 170.39,259.49 C172.37,260.99 173.39,261.16 192.50,263.10 C199.26,263.79 205.37,264.94 206.50,265.73 C208.35,267.02 208.20,267.12 204.50,266.97 C198.69,266.73 197.81,266.88 198.50,268.00 C198.85,268.56 198.07,269.00 196.75,269.00 C195.45,269.00 193.51,269.66 192.44,270.47 C191.37,271.28 189.56,271.95 188.40,271.97 C185.98,272.01 182.78,275.14 183.21,277.07 C184.31,282.03 165.94,274.63 148.79,263.21 C130.44,250.99 130.62,254.03 149.07,267.93 C153.35,271.16 156.59,274.07 156.26,274.40 C155.94,274.73 156.19,275.00 156.83,275.00 C158.87,275.00 158.09,276.57 155.98,276.73 C154.87,276.81 154.20,276.49 154.49,276.01 C154.79,275.53 154.60,274.87 154.07,274.54 C152.10,273.33 154.01,278.33 156.11,279.89 C157.30,280.78 159.39,282.62 160.75,284.00 C162.10,285.38 163.85,286.37 164.62,286.20 C166.90,285.72 167.46,288.94 165.38,290.55 C163.74,291.82 163.72,291.93 165.25,291.40 C166.23,291.05 167.00,291.27 167.00,291.89 C167.00,292.50 166.48,293.00 165.83,293.00 C163.69,293.00 165.79,294.15 168.46,294.45 L 171.10 294.74 L 168.98 292.47 C167.40,290.80 167.17,290.01 168.08,289.45 C168.92,288.93 169.05,289.11 168.49,290.02 C167.89,290.99 168.13,291.16 169.39,290.68 C170.50,290.26 170.87,290.41 170.43,291.12 C169.97,291.86 170.48,291.98 172.00,291.50 C173.53,291.01 174.03,291.14 173.57,291.89 C173.19,292.50 173.36,293.00 173.94,293.00 C175.50,293.00 175.23,294.63 173.35,296.51 C172.11,297.75 172.05,298.09 173.10,297.91 C175.22,297.53 180.02,300.15 179.31,301.30 C178.97,301.86 179.15,302.03 179.70,301.68 C180.26,301.34 184.26,302.20 188.61,303.59 C192.95,304.99 200.31,306.93 204.97,307.91 L 213.44 309.68 L 208.47 310.33 C203.50,310.98 195.72,309.53 191.20,307.11 C189.99,306.46 189.00,306.17 189.00,306.46 C189.00,307.75 200.38,312.35 210.21,315.04 C221.34,318.08 233.85,319.90 245.00,320.10 L 251.50 320.21 L 247.50 321.53 C245.20,322.29 238.20,322.92 231.00,323.01 C212.37,323.25 220.00,324.99 243.50,325.86 C260.86,326.50 262.14,326.66 258.30,327.80 C256.00,328.49 249.13,329.60 243.05,330.28 L 231.99 331.51 L 238.49 333.85 C245.06,336.20 246.46,337.61 243.25,338.60 C242.29,338.90 240.72,339.56 239.76,340.07 C238.81,340.58 237.23,341.00 236.26,340.99 C235.29,340.99 224.82,335.48 212.99,328.74 ZM 161.67 287.52 C161.67,286.70 160.71,285.14 159.55,284.04 C157.53,282.15 157.43,282.14 157.43,283.91 C157.43,285.17 157.93,285.59 158.96,285.20 C160.33,284.69 160.34,284.83 159.00,286.50 C158.18,287.54 158.03,288.07 158.68,287.68 C159.33,287.29 160.14,287.42 160.49,287.98 C161.35,289.38 161.67,289.26 161.67,287.52 ZM 269.12 240.25 C266.71,238.85 264.52,236.87 264.25,235.85 C263.92,234.59 262.85,234.00 260.88,234.00 C259.30,234.00 258.00,233.65 258.00,233.22 C258.00,231.76 266.36,227.02 269.93,226.46 C271.89,226.16 275.69,225.25 278.36,224.45 C286.47,222.03 296.63,223.07 296.37,226.29 C296.26,227.57 296.63,227.73 297.98,227.01 C299.38,226.26 299.70,226.47 299.61,228.08 C299.55,229.18 298.83,230.50 298.00,231.02 C296.82,231.77 297.03,231.98 299.00,232.00 C300.78,232.02 301.11,232.28 300.15,232.89 C299.08,233.57 299.22,234.04 300.86,235.19 C302.00,235.99 303.92,237.96 305.13,239.57 C306.76,241.73 306.17,241.41 302.92,238.36 C298.27,234.01 290.24,229.17 292.82,232.28 C293.54,233.15 293.99,235.36 293.82,237.18 C293.54,240.06 293.10,240.54 290.46,240.80 C288.48,240.99 286.12,240.21 283.68,238.56 C281.63,237.16 278.62,235.34 276.99,234.50 L 274.04 232.97 L 275.02 235.55 C275.99,238.10 275.39,243.09 274.14,242.90 C273.79,242.84 271.53,241.65 269.12,240.25 ZM 160.08 231.41 C158.38,229.99 157.00,228.41 157.00,227.91 C157.00,226.12 159.08,227.05 162.76,230.47 C167.26,234.66 164.91,235.48 160.08,231.41 ZM 141.75 231.92 C139.05,230.35 139.49,226.17 142.44,225.42 C145.45,224.67 147.00,225.54 147.00,227.98 C147.00,232.60 145.22,233.94 141.75,231.92 ZM 170.00 219.83 C166.43,218.70 162.27,216.90 160.77,215.83 C156.31,212.66 146.74,202.21 143.22,196.67 C139.66,191.07 136.00,180.54 136.00,175.89 C136.00,174.30 135.55,173.00 135.00,173.00 C134.44,173.00 133.96,175.98 133.90,179.75 C133.83,184.65 133.58,185.82 133.00,184.00 C131.47,179.24 131.94,168.50 133.91,162.75 L 135.83 157.19 L 133.41 154.92 C129.96,151.68 130.17,146.13 134.00,139.35 C135.65,136.42 137.00,133.24 137.00,132.27 C137.02,125.29 151.85,113.20 166.15,108.51 L 168.50 107.75 L 166.25 107.30 C162.54,106.57 153.73,108.86 146.00,112.57 C134.63,118.01 124.56,129.79 119.86,143.11 C118.00,148.39 117.61,151.59 117.62,161.50 C117.63,173.21 117.73,173.72 121.51,182.50 C124.92,190.43 126.40,192.51 133.94,200.00 C138.69,204.71 145.27,210.06 148.72,212.00 C152.14,213.93 154.95,215.84 154.97,216.25 C155.01,217.31 145.86,213.69 140.26,210.43 C132.19,205.73 122.76,195.45 118.75,187.00 C114.36,177.74 112.90,170.99 112.91,159.99 C112.93,143.82 116.78,133.57 126.89,122.80 C141.59,107.13 165.99,99.73 187.73,104.35 C194.81,105.85 220.90,117.43 219.76,118.57 C219.46,118.87 215.81,118.42 211.65,117.56 C190.88,113.27 174.21,117.92 159.89,132.00 C149.49,142.22 144.99,153.09 145.02,167.93 C145.07,194.10 155.77,211.23 177.22,219.49 C183.01,221.71 183.23,221.90 180.00,221.89 C178.07,221.89 173.57,220.96 170.00,219.83 ZM 167.73 115.75 C173.99,113.67 174.25,113.48 171.13,113.18 C167.46,112.83 162.73,114.41 160.91,116.61 C159.39,118.44 159.78,118.39 167.73,115.75 ZM 278.31 219.57 C276.83,217.88 277.64,217.00 280.67,217.00 C283.24,217.00 283.63,217.97 281.80,219.80 C280.30,221.30 279.80,221.27 278.31,219.57 ZM 387.41 206.50 C386.98,205.40 386.11,204.05 385.49,203.50 C384.66,202.77 384.98,201.84 386.68,200.09 C388.46,198.24 389.00,198.05 389.00,199.27 C389.00,200.15 389.97,201.17 391.16,201.55 C393.13,202.18 393.17,202.33 391.60,203.20 C390.65,203.74 389.50,205.14 389.04,206.34 C388.22,208.46 388.18,208.46 387.41,206.50 ZM 369.63 201.50 C368.43,195.26 364.44,190.20 359.61,188.83 C354.23,187.30 352.83,186.00 356.55,186.00 C362.93,185.99 368.02,180.71 369.58,172.47 L 370.33 168.50 L 371.53 173.77 C373.23,181.28 378.24,186.00 384.51,186.00 C385.99,186.00 386.85,186.43 386.50,187.00 C386.16,187.55 384.90,188.00 383.69,188.00 C378.12,188.01 372.38,194.35 371.02,202.00 L 370.39 205.50 L 369.63 201.50 ZM 245.61 196.12 C243.90,194.23 243.91,194.12 245.92,193.04 C248.56,191.63 252.26,193.38 251.80,195.82 C251.34,198.24 247.69,198.42 245.61,196.12 ZM 260.47 192.97 C257.90,190.29 257.71,189.69 258.86,187.86 C259.97,186.08 259.87,185.49 258.12,183.63 C255.04,180.35 253.00,174.60 253.02,169.28 C253.04,164.54 255.77,156.88 257.90,155.56 C258.64,155.10 258.69,154.29 258.05,153.09 C256.41,150.02 260.00,144.90 266.53,141.00 L 272.40 137.50 L 268.95 137.00 C266.81,136.69 265.50,135.94 265.50,135.03 C265.50,133.17 272.40,129.22 277.00,128.44 C278.92,128.11 281.85,127.23 283.50,126.47 C285.15,125.71 288.16,124.83 290.19,124.51 C293.79,123.95 293.87,123.84 293.69,119.76 C293.51,115.74 293.67,115.50 298.00,113.35 C306.06,109.35 321.00,111.16 321.00,116.13 C321.00,118.76 319.16,119.44 312.00,119.47 C308.42,119.49 305.27,119.95 305.00,120.50 C304.73,121.05 306.08,122.29 308.00,123.25 C312.07,125.28 324.91,125.69 326.75,123.85 C327.62,122.98 329.17,123.22 333.09,124.85 C338.67,127.17 342.51,127.59 343.50,126.00 C344.60,124.22 354.62,124.85 358.19,126.92 C360.01,127.98 363.98,129.30 367.00,129.85 C374.95,131.29 377.50,132.48 379.91,135.88 C381.94,138.72 382.36,138.86 387.00,138.31 C395.41,137.32 399.88,142.24 394.83,146.94 L 392.67 148.96 L 397.31 153.47 C402.98,158.98 405.71,164.15 407.56,172.86 C409.12,180.24 409.44,192.76 408.11,194.86 C407.07,196.50 406.68,195.86 405.02,189.75 C403.78,185.13 401.05,183.12 400.96,186.75 C400.93,187.75 400.01,186.79 398.81,184.50 C396.78,180.62 388.13,169.00 387.29,169.00 C387.05,169.00 387.18,170.01 387.57,171.25 C388.22,173.35 388.14,173.40 386.38,171.95 C382.08,168.40 366.88,159.99 362.10,158.51 C359.85,157.82 359.74,157.96 360.33,160.90 C360.90,163.75 360.75,163.98 358.73,163.52 C344.39,160.27 343.01,160.24 342.98,163.25 C342.95,167.68 341.76,168.33 335.89,167.07 C329.03,165.60 326.50,163.90 324.05,159.10 C322.80,156.66 321.14,155.00 319.53,154.60 C316.42,153.82 311.00,156.39 311.00,158.65 C311.00,159.53 313.25,162.29 316.00,164.79 C318.75,167.28 321.00,169.85 321.00,170.49 C321.00,173.14 316.03,176.29 311.10,176.76 C306.70,177.19 305.85,176.94 303.69,174.61 C299.33,169.90 293.77,166.00 291.43,166.00 C290.17,166.00 288.39,166.76 287.46,167.68 C285.92,169.22 285.91,169.46 287.39,170.54 C289.41,172.02 289.46,174.38 287.50,176.00 C286.67,176.68 286.00,177.80 286.00,178.47 C286.00,180.25 282.88,182.75 280.00,183.27 C277.74,183.68 277.72,183.74 279.72,183.86 C283.03,184.07 281.44,187.00 278.02,187.00 C274.99,187.00 273.26,185.45 273.30,182.80 C273.33,181.44 273.71,181.31 275.26,182.14 C276.65,182.88 276.24,181.88 273.85,178.63 C272.01,176.12 270.20,174.06 269.84,174.04 C268.62,173.97 268.49,185.24 269.67,189.22 L 270.84 193.18 L 268.17 192.51 C264.84,191.68 262.00,189.20 261.98,187.10 C261.98,186.22 261.51,184.82 260.95,184.00 C260.21,182.91 260.12,183.31 260.62,185.50 C261.00,187.15 262.36,189.78 263.66,191.33 C265.81,193.93 266.02,196.00 264.13,196.00 C263.71,196.00 262.07,194.63 260.47,192.97 ZM 237.45 182.92 C237.08,182.32 235.71,182.11 234.39,182.44 C233.08,182.77 232.00,182.73 232.00,182.36 C232.00,181.13 237.08,175.00 238.11,175.00 C238.66,175.00 240.55,176.35 242.30,178.00 L 245.50 180.99 L 242.75 181.00 C240.97,181.00 240.00,181.53 240.00,182.50 C240.00,184.24 238.43,184.50 237.45,182.92 ZM 357.53 176.09 C357.16,174.94 356.22,174.00 355.43,174.00 C354.64,174.00 354.00,173.55 354.00,173.00 C354.00,172.45 354.69,172.00 355.53,172.00 C356.37,172.00 357.43,171.00 357.88,169.79 L 358.70 167.57 L 359.89 169.79 C360.54,171.00 361.73,172.00 362.54,172.00 C363.34,172.00 364.00,172.45 364.00,173.00 C364.00,173.55 363.35,174.00 362.56,174.00 C361.76,174.00 360.46,174.94 359.65,176.09 L 358.19 178.17 L 357.53 176.09 ZM 200.25 136.34 C197.23,135.12 200.64,131.09 204.75,131.03 C207.47,130.99 207.67,133.08 205.17,135.35 C203.30,137.04 202.43,137.22 200.25,136.34 ZM 362.36 121.08 C360.63,120.02 358.91,118.66 358.52,118.04 C357.25,115.98 360.12,114.00 364.37,114.01 C371.76,114.04 377.42,118.69 373.56,121.56 C370.87,123.56 366.09,123.35 362.36,121.08 ZM 335.84 112.87 C329.52,110.55 333.57,105.73 340.23,107.63 C344.32,108.80 345.31,112.42 341.80,113.36 C339.07,114.09 339.21,114.10 335.84,112.87 Z" fill="rgb(113,186,240)"/>
</g>
</svg>